<?xml version="1.0" encoding="UTF-8"?>
<svg width="480px" height="480px" viewBox="0 0 480 480" version="1.1" xmlns="http://www.w3.org/2000/svg" xmlns:xlink="http://www.w3.org/1999/xlink">
    <title>education</title>
    <g id="Page-1" stroke="none" stroke-width="1" fill="none" fill-rule="evenodd">
        <g id="pencil" fill="#f2d24b" fill-rule="nonzero">
            <path d="M240,0 C107.452,0 0,107.452 0,240 C0,372.548 107.452,480 240,480 C372.548,480 480,372.548 480,240 C479.85,107.514 372.486,0.15 240,0 Z M240,464 C116.288,464 16,363.712 16,240 C16,116.288 116.288,16 240,16 C363.712,16 464,116.288 464,240 C463.859,363.653 363.653,463.859 240,464 Z" id="Shape"></path>
            <path d="M332.758905,86.8629345 C351.642811,100.334552 356.936256,126.317186 344.502853,146.177004 L336.863875,158.283419 L320.596172,184.100298 L211.931272,356.613327 L211.595628,357.127755 C211.041765,358.110518 210.237791,358.928892 209.266829,359.500044 L138.806872,401.132458 C135.870441,403.133464 131.868227,402.374908 129.867083,399.438275 C129.02991,398.209503 128.643888,396.728972 128.774976,395.250019 L135.936837,313.400182 C136.025876,312.375173 136.359971,311.386955 136.898801,310.539323 L137.386475,309.738434 L246.128854,137.177195 L249.18094,132.599796 L270.190452,99.2778952 C283.081414,78.9126156 309.929442,72.6615829 330.490301,85.2383494 L333.033848,86.7941987 L332.758905,86.8629345 Z M253.663067,149.485304 L160.042448,297.940857 C168.83595,298.365335 176.781588,303.379634 180.949224,311.134341 L274.569385,162.679514 L253.663067,149.485304 Z M142.763793,384.015298 L154.055345,377.192768 C153.982867,377.099603 153.903762,376.998488 153.816539,376.887365 C151.349542,373.909102 147.996173,371.796587 144.311791,370.871749 L143.900934,370.792738 L142.763793,384.015298 Z M201.470404,349.261717 C204.733915,343.410465 202.750272,335.990396 196.949352,332.562615 C194.243316,330.963312 191.029962,330.452161 187.960277,331.133194 C184.819938,331.826495 182.083944,333.739441 180.402022,336.370575 C178.763733,339.417068 174.965365,340.558885 171.916354,338.919238 C171.790204,338.851024 171.666497,338.778668 171.545273,338.702195 C168.564517,337.115791 167.413241,333.420466 168.975058,330.420163 C169.104678,330.170564 169.25159,329.930188 169.37094,329.766516 C171.090536,326.986916 171.66875,323.650876 170.984101,320.449846 C169.576868,313.75213 163.006974,309.463772 156.309296,310.870996 C153.201079,311.52445 150.466322,313.345036 148.664824,315.950567 L145.009277,357.874084 C145.803141,358.008984 146.592189,358.174608 147.374637,358.370518 C154.626794,360.177444 160.969714,364.53791 165.252985,370.629994 L201.470404,349.261717 Z M212.869566,331.155857 L306.487757,182.704155 L285.383537,169.533386 L191.771861,317.974757 C200.631122,318.330377 208.664352,323.348653 212.869566,331.155857 Z M323.530983,155.610831 L270.748541,122.236592 L260.419741,138.605626 L313.145983,171.854637 L318.753974,162.985477 L318.761369,162.973923 L323.530983,155.610831 Z M333.620955,139.322413 C342.713148,124.73488 338.317341,105.542098 323.788257,96.3690017 C309.200495,87.2748104 290.006036,91.67055 280.832091,106.20312 L277.60602,111.353514 L330.331173,144.569049 L333.620955,139.322413 Z" id="Shape" stroke="#000000" stroke-width="2.5"></path>
        </g>
    </g>
</svg>