<?xml version="1.0" encoding="UTF-8"?>
<svg width="720px" height="261px" viewBox="0 0 720 261" version="1.1" xmlns="http://www.w3.org/2000/svg" xmlns:xlink="http://www.w3.org/1999/xlink">
    <!-- Generator: Sketch 51.1 (57501) - http://www.bohemiancoding.com/sketch -->
    <title>logo-purple</title>
    <desc>Created with Sketch.</desc>
    <defs></defs>
    <g id="Page-1" stroke="none" stroke-width="1" fill="none" fill-rule="evenodd">
        <g id="logo-purple" transform="translate(8.000000, 7.000000)">
            <path d="M46.576,209.792 L46.576,182.144 C46.576,173.36 40.24,168.896 34.192,168.896 C27.856,168.896 20.944,172.208 20.944,182.432 L20.944,209.792 C20.944,214.832 16.336,218.72 10.864,218.72 C5.536,218.72 0.928,214.688 0.784,209.792 L0.784,122.384 C0.928,117.488 5.536,113.456 10.864,113.456 C16.336,113.456 20.944,117.344 20.944,122.384 L20.944,161.264 C23.68,152.912 33.328,149.456 39.664,149.456 C57.376,149.456 66.736,161.12 66.736,181.424 L66.736,209.792 C66.736,214.832 62.128,218.72 56.656,218.72 C51.328,218.72 46.72,214.688 46.576,209.792 Z M140.752,199.856 C144.496,204.176 143.056,210.368 138.16,213.248 C131.392,217.712 122.896,219.296 114.976,219.296 C95.68,219.296 79.84,205.328 79.84,184.16 C79.84,162.992 95.68,149.456 114.976,149.456 C134.128,149.456 149.392,163.568 149.392,184.736 C149.392,188.336 146.368,190.928 143.2,190.928 L99.856,190.928 C100.864,198.704 109.36,202.016 116.416,202.016 C120.448,202.016 123.904,201.728 128.08,198.848 C132.688,195.68 137.872,196.544 140.752,199.856 Z M100.144,178.4 L129.232,178.4 C128.224,170.192 122.608,166.16 115.12,166.16 C107.632,166.16 101.872,169.904 100.144,178.4 Z M181.936,122.384 L181.936,209.792 C181.936,214.832 177.328,218.72 171.856,218.72 C166.528,218.72 161.92,214.688 161.776,209.792 L161.776,122.384 C161.92,117.488 166.528,113.456 171.856,113.456 C177.328,113.456 181.936,117.344 181.936,122.384 Z M219.664,160.256 C225.424,151.328 235.504,149.456 239.824,149.456 C256.96,149.456 272.512,161.984 272.512,184.304 C272.512,206.624 256.96,219.296 239.824,219.296 C232.192,219.296 223.984,215.552 219.664,208.496 L219.664,241.904 C219.52,246.8 214.912,250.832 209.584,250.832 C204.112,250.832 199.504,246.944 199.504,241.904 L199.504,158.96 C199.504,153.92 204.112,150.032 209.584,150.032 C214.912,150.032 219.52,154.064 219.664,158.96 L219.664,160.256 Z M251.776,184.448 C251.776,175.52 246.016,167.456 235.936,167.456 C226.864,167.456 219.52,175.52 219.52,184.448 C219.52,193.376 226.864,201.44 235.936,201.44 C246.016,201.44 251.776,193.376 251.776,184.448 Z M354.16,130.736 L329.68,211.088 C328.24,215.696 324.496,218.72 319.168,218.72 L317.152,218.72 C311.68,218.72 308.08,215.696 306.784,211.088 L282.16,130.736 C280.72,125.696 284.32,119.648 289.504,118.352 C294.976,117.056 300.88,119.936 302.176,124.976 L318.16,186.176 L334.144,124.976 C335.44,119.936 341.344,117.056 346.816,118.352 C352,119.648 355.6,125.696 354.16,130.736 Z M415.072,169.472 L387.424,199.568 L411.76,199.568 C416.224,199.568 420.4,203.888 420.4,208.784 C420.4,213.824 416.368,218 411.76,218 L367.984,218 C363.52,218 358.624,215.12 358.624,209.36 L358.624,208.928 C358.624,205.76 359.776,202.304 362.656,199.28 L390.304,169.184 L368.128,169.184 C363.664,169.184 359.488,164.864 359.488,159.968 C359.488,154.928 363.52,150.752 368.128,150.752 L409.744,150.752 C414.208,150.752 419.104,153.632 419.104,159.392 L419.104,159.824 C419.104,162.992 417.952,166.448 415.072,169.472 Z M454.24,122.384 L454.24,209.792 C454.24,214.832 449.632,218.72 444.16,218.72 C438.832,218.72 434.224,214.688 434.08,209.792 L434.08,122.384 C434.224,117.488 438.832,113.456 444.16,113.456 C449.632,113.456 454.24,117.344 454.24,122.384 Z M521.2,160.256 L521.2,158.96 C521.344,154.064 525.952,150.032 531.28,150.032 C536.752,150.032 541.36,153.92 541.36,158.96 L541.36,209.792 C541.36,214.832 536.752,218.72 531.28,218.72 C525.952,218.72 521.344,214.688 521.2,209.792 L521.2,208.496 C516.88,215.552 508.672,219.296 501.04,219.296 C483.904,219.296 468.352,206.624 468.352,184.304 C468.352,161.984 483.904,149.456 501.04,149.456 C505.36,149.456 515.44,151.328 521.2,160.256 Z M489.088,184.448 C489.088,193.376 494.848,201.44 504.928,201.44 C514,201.44 521.344,193.376 521.344,184.448 C521.344,175.52 514,167.456 504.928,167.456 C494.848,167.456 489.088,175.52 489.088,184.448 Z" id="Combined-Shape" fill="#4B6696"></path>
            <g id="pointer-fill" transform="translate(538.000000, 5.000000)" fill-rule="nonzero">
                <path d="M163.10616,81.6928655 C163.10616,146.883197 89.5120858,207.25883 89.5120858,207.25883 C85.2120078,210.78655 78.1745809,210.78655 73.8740741,207.25883 C73.8740741,207.25883 0.28,146.883197 0.28,81.6928655 C0.28,36.7296686 36.7300975,0.28 81.6932943,0.28 C126.656491,0.28 163.10616,36.7300975 163.10616,81.6928655 Z" id="flag-red" fill="#FF4B55"></path>
                <path d="M147.598235,136.84 L15.7879359,136.84 C6.71907442,119.837507 0.28,100.975816 0.28,81.6928655 C0.28,74.2822951 1.27011949,67.1029836 3.12528559,60.28 L160.260865,60.28 C162.116038,67.1029979 163.10616,74.2823122 163.10616,81.6928655 C163.10616,100.975817 156.667085,119.837509 147.598223,136.840002 Z" id="flag-blue" fill="#5380F0"></path>
                <path d="M2.97517756,60.84 C12.1855221,25.9798167 43.9382137,0.28 81.6932943,0.28 C119.448323,0.28 151.200676,25.9800476 160.410973,60.84 L2.97517756,60.84 Z" id="flag-yellow" fill="#FEE77C"></path>
            </g>
            <path d="M574.317839,115.93752 L575.615545,119.82888 L579.716932,119.86056 C580.247865,119.864667 580.468452,120.542267 580.041359,120.857893 L576.741945,123.29432 L577.979225,127.205627 C578.139385,127.71192 577.562692,128.1308 577.130319,127.821627 L573.793359,125.43624 L570.456399,127.821627 C570.024612,128.130213 569.447919,127.711333 569.607492,127.205627 L570.844772,123.29432 L567.545359,120.857893 C567.118265,120.542853 567.338265,119.864667 567.869785,119.86056 L571.972345,119.82888 L573.270052,115.93752 C573.437252,115.43416 574.150052,115.43416 574.317839,115.93752 Z" id="star1" fill="#F5F5F5" fill-rule="nonzero"></path>
            <path d="M588.042578,100.699304 L586.117138,104.321384 L588.920818,107.315144 C589.283965,107.70293 588.944871,108.32949 588.421565,108.236797 L584.381191,107.52517 L582.400018,111.11733 C582.143645,111.58197 581.442578,111.45349 581.368658,110.927837 L580.797245,106.865757 L576.768605,106.091357 C576.247058,105.991037 576.153191,105.28469 576.630738,105.051784 L580.317351,103.253064 L579.808711,99.1827703 C579.742418,98.6559437 580.385405,98.3485303 580.754418,98.7304503 L583.603858,101.68021 L587.317458,99.9389837 C587.800285,99.7142903 588.291325,100.22997 588.042578,100.699304 Z" id="star2" fill="#F5F5F5" fill-rule="nonzero"></path>
            <path d="M603.935192,87.7119726 L601.105112,90.6816792 L602.998872,94.3201859 C603.244098,94.7912792 602.748365,95.3034392 602.269058,95.0734659 L598.570712,93.2987992 L595.694872,96.2239192 C595.322925,96.6029059 594.682285,96.2890392 594.752685,95.7627992 L595.297112,91.6966126 L591.626338,89.8650392 C591.151138,89.6280259 591.250872,88.9222659 591.773005,88.8266392 L595.808098,88.0880259 L596.415298,84.0312259 C596.493912,83.5061592 597.196152,83.3829592 597.448418,83.8505326 L599.397325,87.4597059 L603.443565,86.7838659 C603.968045,86.6976259 604.301272,87.3277059 603.935192,87.7119726 Z" id="star3" fill="#F5F5F5" fill-rule="nonzero"></path>
            <path d="M625.343584,82.6243241 L621.821238,84.7269375 L622.670731,88.7397375 C622.781024,89.2595241 622.165611,89.6203241 621.766091,89.2706708 L618.678464,86.5708308 L615.123851,88.6182975 C614.663318,88.8834708 614.130624,88.4100308 614.340064,87.9219241 L615.953984,84.1502441 L612.908011,81.4028841 C612.513771,81.0473641 612.799478,80.3944041 613.328064,80.4425108 L617.413611,80.8115241 L619.085611,77.0656575 C619.302091,76.5810708 620.011371,76.6502975 620.129291,77.1677375 L621.040971,81.1670441 L625.120064,81.5994175 C625.646304,81.6563241 625.800011,82.3521108 625.343584,82.6243241 Z" id="star4" fill="#F5F5F5" fill-rule="nonzero" transform="translate(619.168888, 83.073810) rotate(-7.000000) translate(-619.168888, -83.073810) "></path>
            <path d="M635.474459,87.7119726 L638.304539,90.6816792 L636.410779,94.3201859 C636.165553,94.7912792 636.661286,95.3034392 637.140593,95.0734659 L640.838939,93.2987992 L643.715366,96.2239192 C644.087313,96.6029059 644.727953,96.2890392 644.656966,95.7627992 L644.112539,91.6966126 L647.783313,89.8650392 C648.258513,89.6280259 648.158779,88.9222659 647.636646,88.8266392 L643.601553,88.0880259 L642.994353,84.0312259 C642.915739,83.5061592 642.213499,83.3829592 641.961233,83.8505326 L640.012326,87.4597059 L635.966086,86.7838659 C635.441606,86.6976259 635.108379,87.3277059 635.474459,87.7119726 Z" id="star5" fill="#F5F5F5" fill-rule="nonzero"></path>
            <path d="M652.349637,100.699304 L654.275077,104.321384 L651.471397,107.315144 C651.10825,107.70293 651.447344,108.32949 651.97065,108.236797 L656.011024,107.52517 L657.992197,111.11733 C658.24857,111.58197 658.949637,111.45349 659.023557,110.927837 L659.59497,106.865757 L663.62361,106.091357 C664.145157,105.991037 664.239024,105.28469 663.761477,105.051784 L660.074864,103.253064 L660.582917,99.1827703 C660.64921,98.6559437 660.006224,98.3485303 659.63721,98.7304503 L656.78777,101.68021 L653.07417,99.9389837 C652.59193,99.7142903 652.10089,100.22997 652.349637,100.699304 Z" id="star6" fill="#F5F5F5" fill-rule="nonzero"></path>
            <path d="M665.26873,115.93752 L663.971023,119.82888 L659.869637,119.86056 C659.338703,119.864667 659.118117,120.542267 659.54521,120.857893 L662.844623,123.29432 L661.607343,127.205627 C661.447183,127.71192 662.023877,128.1308 662.45625,127.821627 L665.79321,125.43624 L669.13017,127.821627 C669.562543,128.130213 670.13865,127.711333 669.979077,127.205627 L668.741797,123.29432 L672.041797,120.857893 C672.46889,120.542853 672.24889,119.864667 671.71737,119.86056 L667.615983,119.82888 L666.318277,115.93752 C666.149903,115.43416 665.437103,115.43416 665.26873,115.93752 Z" id="star7" fill="#F5F5F5" fill-rule="nonzero"></path>
            <path d="M619.381092,0 C571.750448,0 533,38.7504483 533,86.3806628 C533,101.97922 537.025185,118.53883 544.963197,135.59848 C551.231267,149.068226 559.947212,162.894347 570.870448,176.69345 C589.387329,200.085926 607.643899,215.157427 608.411969,215.787407 C611.487251,218.310331 615.434386,219.572008 619.38152,219.572008 C623.328655,219.572008 627.275361,218.310331 630.351072,215.787407 C631.119142,215.156998 649.375283,200.085926 667.892164,176.69345 C678.814971,162.894776 687.531345,149.068655 693.799415,135.59848 C701.737427,118.53883 705.762612,101.980078 705.762612,86.3806628 C705.761326,38.7504483 667.010877,0 619.381092,0 Z M660.227329,170.368343 C642.367018,192.967446 624.228811,207.958324 624.049123,208.105848 C621.562222,210.146316 617.199532,210.145887 614.713918,208.106706 C614.532943,207.958324 596.395166,192.967446 578.534854,170.368343 C562.294737,149.818713 542.935166,118.567135 542.935166,86.3806628 C542.934737,44.2281481 577.228148,9.93473684 619.380663,9.93473684 C661.533177,9.93473684 695.826589,44.2281481 695.826589,86.3806628 C695.826589,118.566706 676.467446,149.818713 660.227329,170.368343 Z" id="pointer-border" fill="#4B6696" fill-rule="nonzero"></path>
        </g>
    </g>
</svg>