<?xml version="1.0" encoding="UTF-8"?>
<svg width="480px" height="480px" viewBox="0 0 480 480" version="1.1" xmlns="http://www.w3.org/2000/svg" xmlns:xlink="http://www.w3.org/1999/xlink">
    <title>medicine-2</title>
    <g id="Page-1" stroke="none" stroke-width="1" fill="none" fill-rule="evenodd">
        <g id="jar-and-pill" fill="black" fill-rule="nonzero">
            <path d="M240,0 C107.452,0 0,107.452 0,240 C0,372.548 107.452,480 240,480 C372.548,480 480,372.548 480,240 C479.85,107.514 372.486,0.15 240,0 Z M240,464 C116.288,464 16,363.712 16,240 C16,116.288 116.288,16 240,16 C363.712,16 464,116.288 464,240 C463.859,363.653 363.653,463.859 240,464 Z" id="Shape-Copy"></path>
            <path d="M158.265918,158.838351 C154.811883,158.838351 152.008608,161.641626 152.008608,165.095661 C152.008608,168.549696 154.811883,171.352971 158.265918,171.352971 C161.719953,171.352971 164.523228,168.549696 164.523228,165.095661 C164.523228,161.641626 161.719953,158.838351 158.265918,158.838351 Z" id="Shape"></path>
            <path d="M239.578579,275.843789 L220.807901,275.843789 L220.807901,257.073111 C220.807901,253.617825 218.005877,250.815801 214.550591,250.815801 C211.095304,250.815801 208.293906,253.617825 208.293906,257.073111 L208.293906,275.843789 L189.523228,275.843789 C186.067942,275.843789 183.265918,278.645813 183.265918,282.100474 C183.265918,285.555135 186.067942,288.357784 189.523228,288.357784 L208.293906,288.357784 L208.293906,307.128462 C208.293906,310.583749 211.09593,313.385772 214.550591,313.385772 C218.005251,313.385772 220.807901,310.583749 220.807901,307.128462 L220.807901,288.357784 L239.578579,288.357784 C243.033865,288.357784 245.835889,285.55576 245.835889,282.100474 C245.835889,278.645187 243.034491,275.843789 239.578579,275.843789 Z" id="Shape"></path>
            <path d="M245.85568,376.705743 L145.72331,376.705743 C128.058731,376.705743 113.688637,362.335848 113.688637,344.67107 L113.688637,223.492006 C113.688637,216.612547 115.962584,209.789533 120.093454,204.274443 L151.23062,162.76009 L151.23062,145.770176 C143.77353,142.894501 138.716626,135.693444 138.716626,127.553053 L138.716626,98.7706784 C138.716626,88.0063598 147.473389,79.25 158.23793,79.25 L270.863877,79.25 C281.628091,79.25 290.384505,88.0060119 290.385807,98.7706784 L290.385807,127.552427 C290.385807,135.693628 285.329302,142.893782 277.871813,145.769552 L277.871813,162.759469 L309.00677,204.271707 C313.138884,209.788455 315.41317,216.611982 315.41317,223.492006 L315.41317,276.528967 L339.704092,262.505083 C364.022125,248.464091 395.064817,256.7831 409.104755,281.100361 L409.104825,281.100484 C423.14764,305.433314 414.732349,336.513306 390.510093,350.501013 L314.648993,394.300293 C290.702994,408.126884 260.189061,400.289381 245.85568,376.705743 Z M152.731246,98.6870475 L152.731246,127.553053 C152.731246,130.588722 155.20209,133.059737 158.23793,133.059737 L270.863251,133.059737 C273.899461,133.059737 276.370561,130.588977 276.370561,127.553053 L276.370561,98.7706784 C276.370561,95.7346112 273.899319,93.2633684 270.863251,93.2633684 L158.237304,93.2633684 C155.229698,93.2633684 152.776127,95.6894427 152.731246,98.6870475 Z M131.307785,212.678659 C129.567181,215.002615 128.4103,217.762266 127.945423,220.658947 L301.156228,220.658947 C300.690709,217.76204 299.533367,215.002328 297.791667,212.67698 L267.360229,172.102971 L208.293906,172.102971 C204.424406,172.102971 201.286596,168.965161 201.286596,165.095661 C201.286596,161.226161 204.424406,158.088351 208.293906,158.088351 L263.856567,158.088351 L263.856567,147.074357 L165.244614,147.074357 L165.244614,165.095035 C165.244614,166.611418 164.752701,168.087156 163.843146,169.299429 L131.307785,212.678659 Z M146.473936,362.692374 L239.96142,362.692374 C238.014034,354.972823 237.938408,346.871317 239.686503,339.101813 L127.703257,339.101813 L127.703257,344.67107 C127.703257,354.607073 135.787933,362.691749 145.723936,362.691749 L146.473936,362.691749 L146.473936,362.692374 Z M245.1015,325.149766 C249.545171,317.314636 255.961058,310.85705 263.842334,306.304381 L301.39855,284.619056 L301.39855,234.67169 L127.702632,234.67169 L127.702632,325.149766 L245.101479,325.149766 Z M340.956187,362.929467 L304.16422,299.20566 L270.851048,318.43974 C253.283059,328.587108 247.218383,351.005915 257.389374,368.705798 C267.555087,386.310959 290.039718,392.32852 307.642859,382.163637 L307.642896,382.163616 L340.956187,362.929467 Z M383.502745,338.364962 L383.502723,338.364974 C401.048095,328.233192 407.136555,305.727748 396.968076,288.106455 C386.799912,270.496436 364.321592,264.474902 346.710771,274.641785 L316.300301,292.197739 L353.092874,355.922761 L383.502745,338.364962 Z" id="Shape" stroke="black" stroke-width="1.5"></path>
        </g>
    </g>
</svg>